<?xml version="1.0" encoding="utf-8"?>
<svg viewBox="0 0 500 500" width="500" height="500" xmlns="http://www.w3.org/2000/svg">
  <g transform="matrix(0.5, 0, 0, 0.5, 0, 0)">
    <ellipse style="fill: rgb(143, 114, 216);" cx="153" cy="847" rx="145" ry="145"/>
    <ellipse style="fill: rgb(143, 114, 216);" cx="153" cy="153" rx="145" ry="145"/>
    <ellipse style="fill: rgb(143, 114, 216);" cx="847" cy="153" rx="145" ry="145"/>
    <ellipse style="fill: rgb(143, 114, 216);" cx="847" cy="847" rx="145" ry="145"/>
    <ellipse style="fill: rgb(155, 125, 236);" cx="500" cy="500" rx="500" ry="500"/>
    <path d="M 244 351.676025390625 L 244 406.676025390625 L 114 406.676025390625 C 94 406.676025390625 73.5 404.676025390625 58.5 403.176025390625 L 58.5 472.176025390625 C 74 471.176025390625 94 469.676025390625 116 469.676025390625 L 243.5 469.676025390625 C 239.5 554.176025390625 206 626.176025390625 108 670.676025390625 L 170 716.676025390625 C 278 652.176025390625 309.5 570.176025390625 312.5 469.676025390625 L 425 469.676025390625 C 445 469.676025390625 469.5 471.176025390625 480 471.676025390625 L 480 403.676025390625 C 469.5 404.676025390625 448.5 406.676025390625 425.5 406.676025390625 L 313 406.676025390625 L 313 352.176025390625 C 313 336.176025390625 314 308.676025390625 317 293.176025390625 L 237.5 293.176025390625 C 242 308.676025390625 244 334.676025390625 244 351.676025390625 Z M 657.5 297.176025390625 L 634 356.176025390625 C 704.5 365.176025390625 846.5 397.176025390625 904.5 418.676025390625 L 930 356.176025390625 C 867 334.176025390625 723 305.176025390625 657.5 297.176025390625 Z M 634.5 431.676025390625 L 611.5 492.176025390625 C 686 504.176025390625 814 533.176025390625 871.5 555.176025390625 L 896 492.676025390625 C 833 470.676025390625 706 443.676025390625 634.5 431.676025390625 Z M 609 574.676025390625 L 584 637.676025390625 C 664 649.676025390625 822 684.176025390625 889.5 712.176025390625 L 917 649.676025390625 C 848.5 624.176025390625 694.5 588.176025390625 609 574.676025390625 Z" transform="matrix(1, 0, 0, 1, 0, 0)" style="fill: rgb(138, 111, 210); white-space: pre;"/>
    <path d="M 229 336.5570068359375 L 229 391.5570068359375 L 99 391.5570068359375 C 79 391.5570068359375 58.5 389.5570068359375 43.5 388.0570068359375 L 43.5 457.0570068359375 C 59 456.0570068359375 79 454.5570068359375 101 454.5570068359375 L 228.5 454.5570068359375 C 224.5 539.0570068359375 191 611.0570068359375 93 655.5570068359375 L 155 701.5570068359375 C 263 637.0570068359375 294.5 555.0570068359375 297.5 454.5570068359375 L 410 454.5570068359375 C 430 454.5570068359375 454.5 456.0570068359375 465 456.5570068359375 L 465 388.5570068359375 C 454.5 389.5570068359375 433.5 391.5570068359375 410.5 391.5570068359375 L 298 391.5570068359375 L 298 337.0570068359375 C 298 321.0570068359375 299 293.5570068359375 302 278.0570068359375 L 222.5 278.0570068359375 C 227 293.5570068359375 229 319.5570068359375 229 336.5570068359375 Z M 642.5 282.0570068359375 L 619 341.0570068359375 C 689.5 350.0570068359375 831.5 382.0570068359375 889.5 403.5570068359375 L 915 341.0570068359375 C 852 319.0570068359375 708 290.0570068359375 642.5 282.0570068359375 Z M 619.5 416.5570068359375 L 596.5 477.0570068359375 C 671 489.0570068359375 799 518.0570068359375 856.5 540.0570068359375 L 881 477.5570068359375 C 818 455.5570068359375 691 428.5570068359375 619.5 416.5570068359375 Z M 594 559.5570068359375 L 569 622.5570068359375 C 649 634.5570068359375 807 669.0570068359375 874.5 697.0570068359375 L 902 634.5570068359375 C 833.5 609.0570068359375 679.5 573.0570068359375 594 559.5570068359375 Z" transform="matrix(1, 0, 0, 1, 0, 0)" style="fill: rgb(255, 255, 255); white-space: pre;"/>
  </g>
</svg>
